<svg xmlns:ed="https://www.edrawsoft.cn//xml/2017/SVGExtensions/" width="861" ed:hSpacing="30" ed:name="Page-1" xmlns:xlink="http://www.w3.org/1999/xlink" xmlns:ev="http://www.w3.org/2001/xml-events" xmlns="http://www.w3.org/2000/svg" ed:vSpacing="30" height="802" viewBox="0 0 861 802" id="page100"><style type="text/css"><![CDATA[
g[ed\:togtopicid],g[ed\:hyperlink],g[ed\:comment],g[ed\:note] {cursor:pointer;}
g[id] {-moz-user-select: none;-ms-user-select: none;user-select: none;}
svg text::selection,svg tspan::selection{background-color: #4285f4;color: #ffffff;fill: #ffffff;}
.st1 {fill:#ffffff;font-family:微软雅黑;font-size:10pt}
]]></style><defs><linearGradient x2="0%" x1="0%" y1="0%" y2="100%" id="lg1"><stop offset="0" stop-color="#ffffff"/><stop offset="0.25" stop-color="#f0f5f0"/><stop offset="0.75" stop-color="#e1ebe1"/><stop offset="1" stop-color="#c8d7c8"/></linearGradient></defs><rect width="861" y="0" fill="#1e242f" height="802" x="0"/><path ed:idlist="2575,2577,2579,2581,2583,2585,2587,2589,2591,2593,2595,2597,2599,2600,2602,2604,2605,2616,2619,2621,2622,2624,2626,2630,2632" stroke-width="2" stroke="#e38d76" ed:type="summary" transform="matrix(1,0,0,1,722,113)" ed:parentid="2575,2577,2587,2595,2597,2600,2602,2605,2622,2624,2626" fill="none" d="M0,0C0,0,5.2,-0.9,6.6,74.9C8,150.7,4.7,198.4,5.9,258.2C7,318.1,12,332,12,332C12,332,7.1,344.2,5.9,405.9C4.6,467.5,8,513.6,6.6,589.2C5.2,664.7,0,664,0,664" stroke-linejoin="round" id="2636"/><path stroke-width="2" stroke="#e38d76" stroke-linecap="round" ed:tosuperid="2571" transform="matrix(1,0,0,1,184,229)" ed:parentid="2475" fill="none" d="M-13.5,182.8L3.7,182.8L3.7,-176.8C3.7,-180.1,6.4,-182.8,9.7,-182.8L13.5,-182.8" stroke-linejoin="round" id="2572"/><path stroke-width="2" stroke="#e38d76" stroke-linecap="round" ed:tosuperid="2573" transform="matrix(1,0,0,1,184,251)" ed:parentid="2475" fill="none" d="M3.7,160.1L3.7,-154.1C3.7,-157.4,6.4,-160.1,9.7,-160.1L13.5,-160.1" stroke-linejoin="round" id="2574"/><path stroke-width="2" stroke="#e38d76" stroke-linecap="round" ed:tosuperid="2575" transform="matrix(1,0,0,1,184,274)" ed:parentid="2475" fill="none" d="M3.7,137.4L3.7,-131.4C3.7,-134.7,6.4,-137.4,9.7,-137.4L13.5,-137.4" stroke-linejoin="round" id="2576"/><path stroke-width="2" stroke="#e38d76" stroke-linecap="round" ed:tosuperid="2577" transform="matrix(1,0,0,1,184,312)" ed:parentid="2475" fill="none" d="M3.7,99.6L3.7,-93.6C3.7,-96.9,6.4,-99.6,9.7,-99.6L13.5,-99.6" stroke-linejoin="round" id="2578"/><path stroke-width="2" stroke="#e38d76" stroke-linecap="round" ed:tosuperid="2579" transform="matrix(1,0,0,1,433,189)" ed:parentid="2577" fill="none" d="M-13.5,22.7L3.7,22.7L3.7,-16.7C3.7,-20,6.4,-22.7,9.7,-22.7L13.5,-22.7" stroke-linejoin="round" id="2580"/><path stroke-width="2" stroke="#e38d76" stroke-linecap="round" ed:tosuperid="2581" transform="matrix(1,0,0,1,433,205)" ed:parentid="2577" fill="none" d="M3.7,7.6L3.7,-1.6C3.7,-4.9,6.4,-7.6,9.7,-7.6L13.5,-7.6" stroke-linejoin="round" id="2582"/><path stroke-width="2" stroke="#e38d76" stroke-linecap="round" ed:tosuperid="2583" transform="matrix(1,0,0,1,433,220)" ed:parentid="2577" fill="none" d="M3.7,-7.6L3.7,1.6C3.7,4.9,6.4,7.6,9.7,7.6L13.5,7.6" stroke-linejoin="round" id="2584"/><path stroke-width="2" stroke="#e38d76" stroke-linecap="round" ed:tosuperid="2585" transform="matrix(1,0,0,1,433,235)" ed:parentid="2577" fill="none" d="M3.7,-22.7L3.7,16.7C3.7,20,6.4,22.7,9.7,22.7L13.5,22.7" stroke-linejoin="round" id="2586"/><path stroke-width="2" stroke="#e38d76" stroke-linecap="round" ed:tosuperid="2587" transform="matrix(1,0,0,1,184,365)" ed:parentid="2475" fill="none" d="M3.7,46.6L3.7,-40.6C3.7,-43.9,6.4,-46.6,9.7,-46.6L13.5,-46.6" stroke-linejoin="round" id="2588"/><path stroke-width="2" stroke="#e38d76" stroke-linecap="round" ed:tosuperid="2589" transform="matrix(1,0,0,1,497,303)" ed:parentid="2587" fill="none" d="M-13.5,15.1L3.7,15.1L3.7,-9.1C3.7,-12.4,6.4,-15.1,9.7,-15.1L13.5,-15.1" stroke-linejoin="round" id="2590"/><path stroke-width="2" stroke="#e38d76" stroke-linecap="round" ed:tosuperid="2591" transform="matrix(1,0,0,1,497,318)" ed:parentid="2587" fill="none" d="M3.7,0C3.7,0,6.4,0,9.7,0L13.5,0" stroke-linejoin="round" id="2592"/><path stroke-width="2" stroke="#e38d76" stroke-linecap="round" ed:tosuperid="2593" transform="matrix(1,0,0,1,497,333)" ed:parentid="2587" fill="none" d="M3.7,-15.1L3.7,9.1C3.7,12.4,6.4,15.1,9.7,15.1L13.5,15.1" stroke-linejoin="round" id="2594"/><path stroke-width="2" stroke="#e38d76" stroke-linecap="round" ed:tosuperid="2595" transform="matrix(1,0,0,1,184,395)" ed:parentid="2475" fill="none" d="M3.7,16.4L3.7,-10.4C3.7,-13.7,6.4,-16.4,9.7,-16.4L13.5,-16.4" stroke-linejoin="round" id="2596"/><path stroke-width="2" stroke="#e38d76" stroke-linecap="round" ed:tosuperid="2597" transform="matrix(1,0,0,1,184,431)" ed:parentid="2475" fill="none" d="M3.7,-19.5L3.7,13.5C3.7,16.8,6.4,19.5,9.7,19.5L13.5,19.5" stroke-linejoin="round" id="2598"/><path stroke-width="2" stroke="#e38d76" stroke-linecap="round" ed:tosuperid="2600" transform="matrix(1,0,0,1,184,446)" ed:parentid="2475" fill="none" d="M3.7,-34.6L3.7,28.6C3.7,31.9,6.4,34.6,9.7,34.6L13.5,34.6" stroke-linejoin="round" id="2601"/><path stroke-width="2" stroke="#e38d76" stroke-linecap="round" ed:tosuperid="2602" transform="matrix(1,0,0,1,184,482)" ed:parentid="2475" fill="none" d="M3.7,-70.5L3.7,64.5C3.7,67.8,6.4,70.5,9.7,70.5L13.5,70.5" stroke-linejoin="round" id="2603"/><path stroke-width="2" stroke="#e38d76" stroke-linecap="round" ed:tosuperid="2605" transform="matrix(1,0,0,1,184,515)" ed:parentid="2475" fill="none" d="M3.7,-103.9L3.7,97.9C3.7,101.2,6.4,103.9,9.7,103.9L13.5,103.9" stroke-linejoin="round" id="2606"/><path stroke-width="2" stroke="#e38d76" stroke-linecap="round" ed:tosuperid="2616" transform="matrix(1,0,0,1,400,601)" ed:parentid="2605" fill="none" d="M-13.5,18.3L3.7,18.3L3.7,-12.3C3.7,-15.6,6.4,-18.3,9.7,-18.3L13.5,-18.3" stroke-linejoin="round" id="2617"/><path stroke-width="2" stroke="#e38d76" stroke-linecap="round" ed:tosuperid="2619" transform="matrix(1,0,0,1,400,637)" ed:parentid="2605" fill="none" d="M3.7,-18.3L3.7,12.3C3.7,15.6,6.4,18.3,9.7,18.3L13.5,18.3" stroke-linejoin="round" id="2620"/><path stroke-width="2" stroke="#e38d76" stroke-linecap="round" ed:tosuperid="2622" transform="matrix(1,0,0,1,184,549)" ed:parentid="2475" fill="none" d="M3.7,-137.4L3.7,131.4C3.7,134.7,6.4,137.4,9.7,137.4L13.5,137.4" stroke-linejoin="round" id="2623"/><path stroke-width="2" stroke="#e38d76" stroke-linecap="round" ed:tosuperid="2624" transform="matrix(1,0,0,1,184,564)" ed:parentid="2475" fill="none" d="M3.7,-152.5L3.7,146.5C3.7,149.8,6.4,152.5,9.7,152.5L13.5,152.5" stroke-linejoin="round" id="2625"/><path stroke-width="2" stroke="#e38d76" stroke-linecap="round" ed:tosuperid="2626" transform="matrix(1,0,0,1,184,586)" ed:parentid="2475" fill="none" d="M3.7,-175.2L3.7,169.2C3.7,172.5,6.4,175.2,9.7,175.2L13.5,175.2" stroke-linejoin="round" id="2627"/><path stroke-width="2" stroke="#e38d76" stroke-linecap="round" ed:tosuperid="2630" transform="matrix(1,0,0,1,474,754)" ed:parentid="2626" fill="none" d="M-13.5,7.6L3.7,7.6L3.7,-1.6C3.7,-4.9,6.4,-7.6,9.7,-7.6L13.5,-7.6" stroke-linejoin="round" id="2631"/><path stroke-width="2" stroke="#e38d76" stroke-linecap="round" ed:tosuperid="2632" transform="matrix(1,0,0,1,474,769)" ed:parentid="2626" fill="none" d="M3.7,-7.6L3.7,1.6C3.7,4.9,6.4,7.6,9.7,7.6L13.5,7.6" stroke-linejoin="round" id="2633"/><path stroke-width="2" stroke="#e38d76" stroke-linecap="round" ed:tosuperid="2638" transform="matrix(1,0,0,1,408,84)" ed:parentid="2573" fill="none" d="M-13.5,7.6L3.7,7.6L3.7,-1.6C3.7,-4.9,6.4,-7.6,9.7,-7.6L13.5,-7.6" stroke-linejoin="round" id="2639"/><path stroke-width="2" stroke="#e38d76" stroke-linecap="round" ed:tosuperid="2640" transform="matrix(1,0,0,1,408,99)" ed:parentid="2573" fill="none" d="M3.7,-7.6L3.7,1.6C3.7,4.9,6.4,7.6,9.7,7.6L13.5,7.6" stroke-linejoin="round" id="2641"/><g transform="matrix(1,0,0,1,198,385)" ed:parentid="2597" ed:height="35" ed:topictype="callout" id="2599" ed:layout="rightmap" ed:width="234"><path stroke-width="2" stroke="#e38d76" fill="none" d="M4,0L230,0C232.7,0,234,1.3,234,4L234,31C234,33.7,232.7,35,230,35L122,35C119.3,35,117,35.8,114.8,37.3L112,39.2C110.2,40.5,108.9,40.4,108,38.8C106.8,36.4,105.4,35,102.8,35L4,35C1.3,35,0,33.7,0,31L0,4C0,1.3,1.3,0,4,0z" stroke-linejoin="round"/><text class="st1"><tspan style="white-space:pre" y="21.3" x="14">应用源代码就是对RDD的操作记录</tspan></text></g><g transform="matrix(1,0,0,1,198,487)" ed:parentid="2602" ed:height="35" ed:topictype="callout" id="2604" ed:layout="rightmap" ed:width="222.6666666666667"><path stroke-width="2" stroke="#e38d76" fill="none" d="M4,0L218.7,0C221.4,0,222.7,1.3,222.7,4L222.7,31C222.7,33.7,221.4,35,218.7,35L128.4,35C126.3,35,124.9,35.8,124.3,37.6C123.3,40.1,122.4,40.9,120.1,39.6L115.2,36.9C112.8,35.6,110.3,35,107.6,35L4,35C1.3,35,0,33.7,0,31L0,4C0,1.3,1.3,0,4,0z" stroke-linejoin="round"/><text class="st1"><tspan style="white-space:pre" y="21.3" x="14">每个Stage其实也是一个TaskSet</tspan></text></g><g transform="matrix(1,0,0,1,413,589)" ed:parentid="2619" ed:height="35" ed:topictype="callout" id="2621" ed:layout="rightmap" ed:width="125.3333333333333"><path stroke-width="2" stroke="#e38d76" fill="none" d="M4,0L121.3,0C124,0,125.3,1.3,125.3,4L125.3,31C125.3,33.7,124,35,121.3,35L116.7,35C114,35,113.8,35.8,115.9,37.4L120.4,40.6C122.6,42.2,122.3,42.7,119.7,42.1L91.5,35.9C88.8,35.3,86.3,35,83.6,35L4,35C1.3,35,0,33.7,0,31L0,4C0,1.3,1.3,0,4,0z" stroke-linejoin="round"/><text class="st1"><tspan style="white-space:pre" y="21.3" x="14">计算向数据靠拢</tspan></text></g><g transform="matrix(1,0,0,1,22,388)" ed:height="23.75" ed:topictype="drilltop" id="2475" ed:layout="rightmap" ed:width="148.6666666666667"><path stroke-width="2" stroke="#e38d76" fill="none" d="M0,23.8L148.7,23.8" stroke-linejoin="round"/><text class="st1"><tspan style="white-space:pre" y="15.3" x="10">3.Spark运行基本流程</tspan></text></g><g transform="matrix(1,0,0,1,198,22)" ed:parentid="2475" ed:height="23.75" id="2571" ed:width="253.3333333333333"><path stroke-width="2" stroke="#e38d76" fill="none" d="M0,23.8L253.3,23.8" stroke-linejoin="round"/><text class="st1"><tspan style="white-space:pre" y="15.3" x="8">管理调度Spark集群需要一个Driver节点</tspan></text></g><g transform="matrix(1,0,0,1,198,67)" ed:parentid="2475" ed:height="23.75" id="2573" ed:width="196.6666666666667"><path stroke-width="2" stroke="#e38d76" fill="none" d="M0,23.8L196.7,23.8" stroke-linejoin="round"/><text class="st1"><tspan style="white-space:pre" y="15.3" x="8">调度对象为SparkContext对象</tspan></text></g><g transform="matrix(1,0,0,1,198,113)" ed:parentid="2475" ed:height="23.75" id="2575" ed:width="216.6666666666667"><path stroke-width="2" stroke="#e38d76" fill="none" d="M0,23.8L216.7,23.8" stroke-linejoin="round"/><text class="st1"><tspan style="white-space:pre" y="15.3" x="8">应用提交后，需要指定Driver节点</tspan></text></g><g transform="matrix(1,0,0,1,198,188)" ed:parentid="2475" ed:height="23.75" id="2577" ed:width="222"><path stroke-width="2" stroke="#e38d76" fill="none" d="M0,23.8L222,23.8" stroke-linejoin="round"/><text class="st1"><tspan style="white-space:pre" y="15.3" x="8">Driver节点派生SparkContext对象</tspan></text></g><g transform="matrix(1,0,0,1,447,143)" ed:parentid="2577" ed:height="23.75" id="2579" ed:width="98"><path stroke-width="2" stroke="#e38d76" fill="none" d="M0,23.8L98,23.8" stroke-linejoin="round"/><text class="st1"><tspan style="white-space:pre" y="15.3" x="8">申请物理资源</tspan></text></g><g transform="matrix(1,0,0,1,447,173)" ed:parentid="2577" ed:height="23.75" id="2581" ed:width="124.6666666666667"><path stroke-width="2" stroke="#e38d76" fill="none" d="M0,23.8L124.7,23.8" stroke-linejoin="round"/><text class="st1"><tspan style="white-space:pre" y="15.3" x="8">将作业分解为阶段</tspan></text></g><g transform="matrix(1,0,0,1,447,204)" ed:parentid="2577" ed:height="23.75" id="2583" ed:width="218"><path stroke-width="2" stroke="#e38d76" fill="none" d="M0,23.8L218,23.8" stroke-linejoin="round"/><text class="st1"><tspan style="white-space:pre" y="15.3" x="8">将阶段中的各任务分配至工作节点</tspan></text></g><g transform="matrix(1,0,0,1,447,234)" ed:parentid="2577" ed:height="23.75" id="2585" ed:width="124.6666666666667"><path stroke-width="2" stroke="#e38d76" fill="none" d="M0,23.8L124.7,23.8" stroke-linejoin="round"/><text class="st1"><tspan style="white-space:pre" y="15.3" x="8">监控应用运行过程</tspan></text></g><g transform="matrix(1,0,0,1,198,294)" ed:parentid="2475" ed:height="23.75" id="2587" ed:width="286"><path stroke-width="2" stroke="#e38d76" fill="none" d="M0,23.8L286,23.8" stroke-linejoin="round"/><text class="st1"><tspan style="white-space:pre" y="15.3" x="8">资源管理器分配物理资源后启动Executor进程</tspan></text></g><g transform="matrix(1,0,0,1,511,264)" ed:parentid="2587" ed:height="23.75" id="2589" ed:width="84.66666666666667"><path stroke-width="2" stroke="#e38d76" fill="none" d="M0,23.8L84.7,23.8" stroke-linejoin="round"/><text class="st1"><tspan style="white-space:pre" y="15.3" x="8">内置管理器</tspan></text></g><g transform="matrix(1,0,0,1,511,294)" ed:parentid="2587" ed:height="23.75" id="2591" ed:width="106"><path stroke-width="2" stroke="#e38d76" fill="none" d="M0,23.8L106,23.8" stroke-linejoin="round"/><text class="st1"><tspan style="white-space:pre" y="15.3" x="8">Apache YARN</tspan></text></g><g transform="matrix(1,0,0,1,511,325)" ed:parentid="2587" ed:height="23.75" id="2593" ed:width="59.33333333333334"><path stroke-width="2" stroke="#e38d76" fill="none" d="M0,23.8L59.3,23.8" stroke-linejoin="round"/><text class="st1"><tspan style="white-space:pre" y="15.3" x="8">Mesos</tspan></text></g><g transform="matrix(1,0,0,1,198,355)" ed:parentid="2475" ed:height="23.75" id="2595" ed:width="299.3333333333333"><path stroke-width="2" stroke="#e38d76" fill="none" d="M0,23.8L299.3,23.8" stroke-linejoin="round"/><text class="st1"><tspan style="white-space:pre" y="15.3" x="8">Executor进程在工作节点启动后即驻守在设备中</tspan></text></g><g transform="matrix(1,0,0,1,198,427)" ed:parentid="2475" ed:height="23.75" id="2597" ed:width="209.3333333333333"><path stroke-width="2" stroke="#e38d76" fill="none" d="M0,23.8L209.3,23.8" stroke-linejoin="round"/><text class="st1"><tspan style="white-space:pre" y="15.3" x="8">根据RDD依赖关系，构建DAG图</tspan></text></g><g transform="matrix(1,0,0,1,198,457)" ed:parentid="2475" ed:height="23.75" id="2600" ed:width="236.6666666666667"><path stroke-width="2" stroke="#e38d76" fill="none" d="M0,23.8L236.7,23.8" stroke-linejoin="round"/><text class="st1"><tspan style="white-space:pre" y="15.3" x="8">将DAG图提交给DAG Scheduler模块</tspan></text></g><g transform="matrix(1,0,0,1,198,529)" ed:parentid="2475" ed:height="23.75" id="2602" ed:width="259.3333333333334"><path stroke-width="2" stroke="#e38d76" fill="none" d="M0,23.8L259.3,23.8" stroke-linejoin="round"/><text class="st1"><tspan style="white-space:pre" y="15.3" x="8">DAG Scheduler将DAG图分为多个Stage</tspan></text></g><g transform="matrix(1,0,0,1,198,595)" ed:parentid="2475" ed:height="23.75" id="2605" ed:width="188.6666666666667"><path stroke-width="2" stroke="#e38d76" fill="none" d="M0,23.8L188.7,23.8" stroke-linejoin="round"/><text class="st1"><tspan style="white-space:pre" y="15.3" x="8">Stage提交至Task Scheduler</tspan></text></g><g transform="matrix(1,0,0,1,413,559)" ed:parentid="2605" ed:height="23.75" id="2616" ed:width="280"><path stroke-width="2" stroke="#e38d76" fill="none" d="M0,23.8L280,23.8" stroke-linejoin="round"/><text class="st1"><tspan style="white-space:pre" y="15.3" x="8">Work Node主动向Task Scheduler请求任务</tspan></text></g><g transform="matrix(1,0,0,1,413,632)" ed:parentid="2605" ed:height="23.75" id="2619" ed:width="304"><path stroke-width="2" stroke="#e38d76" fill="none" d="M0,23.8L304,23.8" stroke-linejoin="round"/><text class="st1"><tspan style="white-space:pre" y="15.3" x="8">Task Tracker将任务分配到相应的Work Node上</tspan></text></g><g transform="matrix(1,0,0,1,198,662)" ed:parentid="2475" ed:height="23.75" id="2622" ed:width="234"><path stroke-width="2" stroke="#e38d76" fill="none" d="M0,23.8L234,23.8" stroke-linejoin="round"/><text class="st1"><tspan style="white-space:pre" y="15.3" x="8">Executor将结果返回Task Scheduler</tspan></text></g><g transform="matrix(1,0,0,1,198,693)" ed:parentid="2475" ed:height="23.75" id="2624" ed:width="262"><path stroke-width="2" stroke="#e38d76" fill="none" d="M0,23.8L262,23.8" stroke-linejoin="round"/><text class="st1"><tspan style="white-space:pre" y="15.3" x="8">Task Scheduler向上返回DAG Scheduler</tspan></text></g><g transform="matrix(1,0,0,1,198,738)" ed:parentid="2475" ed:height="23.75" id="2626" ed:width="263.3333333333334"><path stroke-width="2" stroke="#e38d76" fill="none" d="M0,23.8L263.3,23.8" stroke-linejoin="round"/><text class="st1"><tspan style="white-space:pre" y="15.3" x="8">SparkContext最后整合，向用户返回结果</tspan></text></g><g transform="matrix(1,0,0,1,488,723)" ed:parentid="2626" ed:height="23.75" id="2630" ed:width="71.33333333333334"><path stroke-width="2" stroke="#e38d76" fill="none" d="M0,23.8L71.3,23.8" stroke-linejoin="round"/><text class="st1"><tspan style="white-space:pre" y="15.3" x="8">标准输出</tspan></text></g><g transform="matrix(1,0,0,1,488,753)" ed:parentid="2626" ed:height="23.75" id="2632" ed:width="80"><path stroke-width="2" stroke="#e38d76" fill="none" d="M0,23.8L80,23.8" stroke-linejoin="round"/><text class="st1"><tspan style="white-space:pre" y="15.3" x="8">写入HDFS</tspan></text></g><g transform="matrix(1,0,0,1,743,430)" ed:parentid="2636" ed:height="29" id="2637" ed:layout="rightmap" ed:width="95.70666666666666"><path stroke-width="2" stroke="#e38d76" fill="none" d="M14.5,0L81.2,0C89.2,0,95.7,6.5,95.7,14.5C95.7,22.5,89.2,29,81.2,29L14.5,29C6.5,29,0,22.5,0,14.5C0,6.5,6.5,0,14.5,0z" stroke-linejoin="round"/><text class="st1"><tspan style="white-space:pre" y="18.3" x="13">运行全流程</tspan></text></g><g transform="matrix(1,0,0,1,421,52)" ed:parentid="2573" ed:height="23.75" id="2638" ed:width="124.6666666666667"><path stroke-width="2" stroke="#e38d76" fill="none" d="M0,23.8L124.7,23.8" stroke-linejoin="round"/><text class="st1"><tspan style="white-space:pre" y="15.3" x="8">应用运行的总指挥</tspan></text></g><g transform="matrix(1,0,0,1,421,83)" ed:parentid="2573" ed:height="23.75" id="2640" ed:width="164.6666666666667"><path stroke-width="2" stroke="#e38d76" fill="none" d="M0,23.8L164.7,23.8" stroke-linejoin="round"/><text class="st1"><tspan style="white-space:pre" y="15.3" x="8">应用连接集群整体的通道</tspan></text></g><g transform="translate(172,393)" ed:togtopicid="2475"><use xlink:href="#minus"/></g><g transform="translate(395,73)" ed:togtopicid="2573"><use xlink:href="#minus"/></g><g transform="translate(421,194)" ed:togtopicid="2577"><use xlink:href="#minus"/></g><g transform="translate(485,300)" ed:togtopicid="2587"><use xlink:href="#minus"/></g><g transform="translate(387,601)" ed:togtopicid="2605"><use xlink:href="#minus"/></g><g transform="translate(462,744)" ed:togtopicid="2626"><use xlink:href="#minus"/></g><symbol id="plus"><path fill="url(#lg1)" d="M11,6C11,8.8,8.8,11,6,11C3.2,11,1,8.8,1,6C1,3.2,3.2,1,6,1C8.8,1,11,3.2,11,6z"/><path stroke-width="0.7" stroke="#46a000" fill="none" d="M11,6C11,8.8,8.8,11,6,11C3.2,11,1,8.8,1,6C1,3.2,3.2,1,6,1C8.8,1,11,3.2,11,6zM3,6L9,6M6,3L6,9"/></symbol><symbol id="minus"><path fill="url(#lg1)" d="M11,6C11,8.8,8.8,11,6,11C3.2,11,1,8.8,1,6C1,3.2,3.2,1,6,1C8.8,1,11,3.2,11,6z"/><path stroke-width="0.7" stroke="#46a000" fill="none" d="M11,6C11,8.8,8.8,11,6,11C3.2,11,1,8.8,1,6C1,3.2,3.2,1,6,1C8.8,1,11,3.2,11,6zM3,6L9,6"/></symbol></svg>